<svg width="37" height="43" viewBox="0 0 37 43" fill="none" xmlns="http://www.w3.org/2000/svg">
<path fill-rule="evenodd" clip-rule="evenodd" d="M23 3L18.5 0L14 3L9 0V5.5L18.5 11L28 5.5V0L23 3ZM6 7.5L3 9V12.5L0 14.5V19.5L6 16V19.5L0 23V28.5L6 25V28.5L0 32L18.5 42.5L37 32L31 28.5V25L37 28.5V23L31 19.5V16L37 19.5V14.5L34 12.5V9L31 7.5L25 11L27.5 13L22.5 15.5V19L28 16V19.5L25.5 21V25.5L23 27.5L20 26L22.5 24V21.5L18.5 22.5L14.5 21.5V24L17 26L14 27.5L11.5 25.5V21L9 19.5V16L14.5 19V15.5L9.5 12.5L12 11L6 7.5ZM22.5 35.5L18.5 38L14.5 35.5V30.5L18.5 28.5L22.5 30.5V35.5ZM21.3284 5.82843L18.5 4L15.6716 5.82843L18.5 7.5L21.3284 5.82843Z" fill="#EEEEEE"/>
</svg>
